<svg width="14" height="15" viewBox="0 0 14 15" fill="none" xmlns="http://www.w3.org/2000/svg">
<path d="M14 3.12512V11.8751C14 12.3717 13.6216 12.7501 13.125 12.7501H12.25V4.80906L7 8.58031L1.75 4.80906V12.7501H0.875C0.378438 12.7501 0 12.3717 0 11.8751V3.12512C0 2.87662 0.093625 2.65787 0.250688 2.50299C0.332443 2.42109 0.429856 2.35649 0.537117 2.31304C0.644378 2.2696 0.75929 2.2482 0.875 2.25012H1.16681L7 6.47943L12.8332 2.25012H13.125C13.3735 2.25012 13.5922 2.34374 13.7493 2.50299C13.9064 2.65787 14 2.87662 14 3.12512Z" fill="white"/>
</svg>
