<svg width="14" height="13" viewBox="0 0 14 13" fill="none" xmlns="http://www.w3.org/2000/svg">
<g clip-path="url(#clip0_4006_1039)">
<path d="M9.60001 3.24961C9.60001 3.07722 9.66849 2.91189 9.79039 2.78999C9.91228 2.66809 10.0776 2.59961 10.25 2.59961C10.4224 2.59961 10.5877 2.66809 10.7096 2.78999C10.8315 2.91189 10.9 3.07722 10.9 3.24961C10.9 3.422 10.8315 3.58733 10.7096 3.70923C10.5877 3.83113 10.4224 3.89961 10.25 3.89961C10.0776 3.89961 9.91228 3.83113 9.79039 3.70923C9.66849 3.58733 9.60001 3.422 9.60001 3.24961Z" fill="white"/>
<path fill-rule="evenodd" clip-rule="evenodd" d="M7.00001 3.41211C6.18115 3.41211 5.39583 3.7374 4.81681 4.31642C4.2378 4.89544 3.91251 5.68075 3.91251 6.49961C3.91251 7.31847 4.2378 8.10378 4.81681 8.6828C5.39583 9.26182 6.18115 9.58711 7.00001 9.58711C7.81886 9.58711 8.60418 9.26182 9.1832 8.6828C9.76222 8.10378 10.0875 7.31847 10.0875 6.49961C10.0875 5.68075 9.76222 4.89544 9.1832 4.31642C8.60418 3.7374 7.81886 3.41211 7.00001 3.41211ZM4.88751 6.49961C4.88751 5.93934 5.11007 5.40202 5.50624 5.00585C5.90241 4.60968 6.43974 4.38711 7.00001 4.38711C7.56028 4.38711 8.0976 4.60968 8.49377 5.00585C8.88994 5.40202 9.11251 5.93934 9.11251 6.49961C9.11251 7.05988 8.88994 7.5972 8.49377 7.99337C8.0976 8.38954 7.56028 8.61211 7.00001 8.61211C6.43974 8.61211 5.90241 8.38954 5.50624 7.99337C5.11007 7.5972 4.88751 7.05988 4.88751 6.49961Z" fill="white"/>
<path fill-rule="evenodd" clip-rule="evenodd" d="M10.4177 0.541482C8.1462 0.289558 5.85381 0.289558 3.58231 0.541482C2.27451 0.687732 1.21826 1.71798 1.06486 3.03228C0.795825 5.33629 0.795825 7.66377 1.06486 9.96778C1.21826 11.2821 2.27386 12.3123 3.58231 12.4586C5.85384 12.71 8.14617 12.71 10.4177 12.4586C11.7255 12.3123 12.7818 11.2821 12.9352 9.96778C13.2042 7.66377 13.2042 5.33629 12.9352 3.03228C12.7818 1.71798 11.7262 0.687732 10.4177 0.541482ZM3.69021 1.50998C5.89 1.26604 8.11001 1.26604 10.3098 1.50998C11.1743 1.60748 11.8666 2.28933 11.9673 3.14603C12.228 5.37443 12.228 7.62563 11.9673 9.85403C11.9152 10.2733 11.7233 10.6628 11.4225 10.9595C11.1218 11.2563 10.7297 11.443 10.3098 11.4894C8.11001 11.7334 5.89 11.7334 3.69021 11.4894C3.27027 11.443 2.87826 11.2563 2.57751 10.9595C2.27675 10.6628 2.08482 10.2733 2.03271 9.85403C1.77196 7.62563 1.77196 5.37443 2.03271 3.14603C2.08482 2.72676 2.27675 2.33729 2.57751 2.04055C2.87826 1.7438 3.27027 1.55646 3.69021 1.50998Z" fill="white"/>
</g>
<defs>
<clipPath id="clip0_4006_1039">
<rect width="13" height="13" fill="white" transform="translate(0.5)"/>
</clipPath>
</defs>
</svg>
