<svg width="20" height="20" viewBox="0 0 20 20" fill="none" xmlns="http://www.w3.org/2000/svg">
<g clip-path="url(#clip0_4006_890)">
<path d="M10.9677 9.03226V0.967742C10.9677 0.711081 10.8658 0.464932 10.6843 0.283445C10.5028 0.101958 10.2567 0 10 0C9.74334 0 9.49719 0.101958 9.3157 0.283445C9.13422 0.464932 9.03226 0.711081 9.03226 0.967742V9.03226H0.967742C0.711081 9.03226 0.464932 9.13422 0.283445 9.3157C0.101958 9.49719 0 9.74334 0 10C0 10.2567 0.101958 10.5028 0.283445 10.6843C0.464932 10.8658 0.711081 10.9677 0.967742 10.9677H9.03226L9.03226 19.0323C9.0356 19.2879 9.13863 19.5321 9.3194 19.7129C9.50017 19.8936 9.74438 19.9967 10 20C10.2567 20 10.5028 19.898 10.6843 19.7166C10.8658 19.5351 10.9677 19.2889 10.9677 19.0323L10.9677 10.9677L19.0323 10.9677C19.2889 10.9677 19.5351 10.8658 19.7166 10.6843C19.898 10.5028 20 10.2567 20 10C19.9967 9.74438 19.8936 9.50017 19.7129 9.3194C19.5321 9.13863 19.2879 9.0356 19.0323 9.03226L10.9677 9.03226Z" fill="white"/>
</g>
<defs>
<clipPath id="clip0_4006_890">
<rect width="20" height="20" fill="white"/>
</clipPath>
</defs>
</svg>
