<svg width="28" height="65" viewBox="0 0 28 65" fill="none" xmlns="http://www.w3.org/2000/svg">
<path d="M1.05684 0.999999C0.474143 11.7565 4.4046 21.9124 11.3277 30.2694C13.7121 33.1475 16.8754 36.0075 20.2883 37.6908C21.8357 38.4542 24.8815 39.4724 26.3113 38.1703C28.6852 36.0088 24.2909 33.1671 22.6552 32.2289C19.6984 30.5332 13.9412 31.8073 12.2787 34.8348C9.1928 40.4548 9.92975 48.7844 10.2077 54.9523C10.3186 57.4149 10.9473 59.9212 10.9473 62.3531C10.9473 63.2966 12.1477 61.0164 12.4689 60.6645C14.3644 58.5869 14.3291 58.4771 12.6591 61.0396C12.4279 61.3946 11.0052 64 10.7571 64C10.584 64 7.27585 59.5682 6.76293 59.1634" stroke="white" stroke-width="0.787402" stroke-linecap="round"/>
</svg>
