<svg width="48" height="48" viewBox="0 0 48 48" fill="none" xmlns="http://www.w3.org/2000/svg">
<circle cx="24" cy="24" r="24" fill="#941FE7"/>
<path d="M14.5263 23.6316V33.7368H23.3684V23.6316H14.5263ZM24.6316 23.6316V33.7368H33.4737V23.6316H24.6316ZM34.7368 23.6316V35H13.2632V23.6316H12V16.0526H15.84L15.7895 15.4211C15.7895 14.2485 16.2553 13.124 17.0844 12.2949C17.9135 11.4658 19.038 11 20.2105 11C21.8147 11 23.2295 11.8589 24 13.1474C24.7705 11.8589 26.1853 11 27.7895 11C28.962 11 30.0865 11.4658 30.9156 12.2949C31.7447 13.124 32.2105 14.2485 32.2105 15.4211L32.16 16.0526H36V23.6316H34.7368ZM13.2632 17.3158V22.3684H23.3684V17.3158H13.2632ZM34.7368 22.3684V17.3158H24.6316V22.3684H34.7368ZM30.8842 16.0526L30.9474 15.4211C30.9474 14.5835 30.6147 13.7803 30.0224 13.1881C29.4302 12.5959 28.627 12.2632 27.7895 12.2632C26.9519 12.2632 26.1487 12.5959 25.5565 13.1881C24.9643 13.7803 24.6316 14.5835 24.6316 15.4211V16.0526H30.8842ZM23.3684 16.0526V15.4211C23.3684 14.5835 23.0357 13.7803 22.4435 13.1881C21.8513 12.5959 21.0481 12.2632 20.2105 12.2632C19.373 12.2632 18.5698 12.5959 17.9776 13.1881C17.3853 13.7803 17.0526 14.5835 17.0526 15.4211L17.1158 16.0526H23.3684Z" fill="white"/>
</svg>
