<svg width="20" height="20" viewBox="0 0 20 20" fill="none" xmlns="http://www.w3.org/2000/svg">
<g clip-path="url(#clip0_4017_56)">
<path d="M8.45143 18.7139C9.50607 19.7768 10.4854 19.7686 11.5404 18.7139L12.8293 17.4328C12.9632 17.3075 13.0804 17.2571 13.2561 17.2571H15.0643C16.5625 17.2571 17.2571 16.5707 17.2571 15.0643V13.2561C17.2571 13.0803 17.3075 12.9632 17.4329 12.8293L18.7054 11.54C19.7768 10.4853 19.7682 9.50606 18.7054 8.45142L17.4329 7.16213C17.3075 7.03713 17.2571 6.91142 17.2571 6.74392V4.92749C17.2571 3.43749 16.5707 2.73463 15.0643 2.73463H13.2561C13.0804 2.73463 12.9632 2.69249 12.8293 2.56677L11.54 1.28642C10.4854 0.223203 9.50607 0.231775 8.45143 1.28642L7.16215 2.56713C7.03715 2.69249 6.91143 2.73427 6.74393 2.73427H4.9275C3.42929 2.73427 2.73465 3.4207 2.73465 4.92713V6.74392C2.73465 6.91142 2.6925 7.03678 2.56679 7.16249L1.28643 8.45178C0.223219 9.50606 0.23179 10.4853 1.28643 11.5403L2.56715 12.8293C2.6925 12.9632 2.73429 13.0803 2.73429 13.2561V15.0643C2.73429 16.5625 3.42929 17.2571 4.92715 17.2571H6.74393C6.91143 17.2571 7.03679 17.3075 7.1625 17.4328L8.45143 18.7139ZM8.58536 14.2103C8.32608 14.2103 8.15858 14.1268 8.03286 13.9843L5.23715 10.8789C5.11992 10.7475 5.05454 10.5779 5.05322 10.4018C5.05322 10.0082 5.35429 9.71535 5.78143 9.71535C6.00715 9.71535 6.17465 9.7907 6.32536 9.94963L8.54322 12.4025L12.8543 6.33356C13.0218 6.0907 13.1893 5.9907 13.4821 5.9907C13.8921 5.9907 14.1854 6.29178 14.1854 6.68535C14.1854 6.82749 14.1268 6.99499 14.0346 7.12892L9.15465 13.9511C9.02893 14.11 8.83679 14.2103 8.58536 14.2103Z" fill="white"/>
</g>
<defs>
<clipPath id="clip0_4017_56">
<rect width="20" height="20" fill="white"/>
</clipPath>
</defs>
</svg>
